<svg width="20" height="20" viewBox="0 0 20 20" fill="none" xmlns="http://www.w3.org/2000/svg">
<path d="M18.287 9.11571C18.2104 8.78502 18.0625 8.47503 17.8537 8.20738C17.6418 7.94175 17.3744 7.7256 17.0703 7.57405C16.8305 7.45607 16.5702 7.38533 16.3037 7.36571C16.1678 5.90747 15.5215 4.54401 14.4787 3.51571C13.2912 2.33003 11.6817 1.66406 10.0037 1.66406C8.3256 1.66406 6.71613 2.33003 5.52867 3.51571C4.48583 4.54401 3.83951 5.90747 3.70367 7.36571C3.43712 7.38533 3.17683 7.45607 2.937 7.57405C2.63138 7.72324 2.36356 7.93978 2.15367 8.20738C1.94331 8.47445 1.79524 8.78512 1.72027 9.11671C1.6453 9.44831 1.64533 9.79246 1.72034 10.124L3.02867 15.4824C3.25386 16.3034 3.74316 17.0274 4.42096 17.5425C5.09876 18.0577 5.92734 18.3352 6.77867 18.3324H13.2037C14.0579 18.3333 14.8887 18.0531 15.5679 17.535C16.2471 17.0169 16.737 16.2898 16.962 15.4657L18.262 10.124C18.3453 9.79405 18.3537 9.44905 18.287 9.11571ZM7.37034 14.4657C7.37034 14.6315 7.30449 14.7904 7.18728 14.9077C7.07007 15.0249 6.9111 15.0907 6.74534 15.0907C6.57958 15.0907 6.42061 15.0249 6.3034 14.9077C6.18619 14.7904 6.12034 14.6315 6.12034 14.4657V11.1824C6.12034 11.0166 6.18619 10.8576 6.3034 10.7404C6.42061 10.6232 6.57958 10.5574 6.74534 10.5574C6.9111 10.5574 7.07007 10.6232 7.18728 10.7404C7.30449 10.8576 7.37034 11.0166 7.37034 11.1824V14.4657ZM10.6287 14.4657C10.6287 14.5478 10.6125 14.6291 10.5811 14.7049C10.5497 14.7807 10.5036 14.8496 10.4456 14.9077C10.3876 14.9657 10.3187 15.0117 10.2428 15.0431C10.167 15.0745 10.0857 15.0907 10.0037 15.0907C9.9216 15.0907 9.84032 15.0745 9.76449 15.0431C9.68867 15.0117 9.61977 14.9657 9.56173 14.9077C9.50369 14.8496 9.45766 14.7807 9.42625 14.7049C9.39484 14.6291 9.37867 14.5478 9.37867 14.4657V11.1824C9.37867 11.0166 9.44452 10.8576 9.56173 10.7404C9.67894 10.6232 9.83791 10.5574 10.0037 10.5574C10.1694 10.5574 10.3284 10.6232 10.4456 10.7404C10.5628 10.8576 10.6287 11.0166 10.6287 11.1824V14.4657ZM13.887 14.4657C13.887 14.6315 13.8212 14.7904 13.7039 14.9077C13.5867 15.0249 13.4278 15.0907 13.262 15.0907C13.0962 15.0907 12.9373 15.0249 12.8201 14.9077C12.7029 14.7904 12.637 14.6315 12.637 14.4657V11.1824C12.637 11.0166 12.7029 10.8576 12.8201 10.7404C12.9373 10.6232 13.0962 10.5574 13.262 10.5574C13.4278 10.5574 13.5867 10.6232 13.7039 10.7404C13.8212 10.8576 13.887 11.0166 13.887 11.1824V14.4657ZM4.962 7.34905C5.09906 6.2304 5.61002 5.19086 6.41201 4.39905C7.36616 3.44947 8.65753 2.9164 10.0037 2.9164C11.3498 2.9164 12.6412 3.44947 13.5953 4.39905C14.3973 5.19086 14.9083 6.2304 15.0453 7.34905H4.962Z" fill="currentColor"/>
</svg>
