<svg width="136" height="27" viewBox="0 0 136 27" fill="none" xmlns="http://www.w3.org/2000/svg">
<path d="M70.2748 14.5653L68.6271 11.9912H58.4037L56.7561 14.5653H51.7734L61.2822 0.257812H65.9174L75.4362 14.5653H70.2748ZM60.4782 8.75843H66.5526L63.5254 3.9992L60.4782 8.75843Z" fill="#818181"/>
<path d="M87.7449 8.24966C87.7449 9.80609 87.4934 11.0599 86.9906 12.0111C86.4877 12.9556 85.6672 13.664 84.5291 14.1363C83.3975 14.6019 81.8889 14.8347 80.0029 14.8347C78.6465 14.8347 77.3794 14.725 76.2014 14.5055L76.0625 11.0533C77.2338 11.1996 78.3852 11.2727 79.5166 11.2727C80.926 11.2727 81.9022 11.0565 82.4448 10.6243C82.9872 10.1918 83.2586 9.45018 83.2586 8.39927V0.257812H87.7449V8.24966Z" fill="#818181"/>
<path d="M110.063 12.9007C108.104 14.1911 105.321 14.8364 101.715 14.8364C98.1087 14.8364 95.3263 14.1911 93.3676 12.9007C91.4089 11.6037 90.4297 9.78117 90.4297 7.43317C90.4297 5.06522 91.4089 3.23602 93.3676 1.94557C95.3263 0.648471 98.1087 0 101.715 0C105.321 0 108.104 0.648471 110.063 1.94557C112.021 3.23602 113 5.06522 113 7.43317C113 9.78117 112.021 11.6037 110.063 12.9007ZM96.6529 10.3964C97.7381 11.035 99.4255 11.3543 101.715 11.3543C104.004 11.3543 105.692 11.035 106.777 10.3964C107.862 9.75119 108.405 8.76349 108.405 7.43317C108.405 6.08955 107.862 5.09505 106.777 4.44998C105.692 3.79811 104.004 3.47217 101.715 3.47217C99.4255 3.47217 97.7381 3.79811 96.6529 4.44998C95.5677 5.09505 95.0252 6.08955 95.0252 7.43317C95.0252 8.76349 95.5677 9.75119 96.6529 10.3964Z" fill="#818181"/>
<path d="M115.906 14.5653V0.257812H128.82C130.705 0.257812 132.151 0.680186 133.157 1.52493C134.163 2.36303 134.666 3.51362 134.666 4.97701C134.666 6.24088 134.249 7.29179 133.415 8.12989C132.581 8.96135 131.407 9.45682 129.892 9.61646L135.38 14.5653H129.504L124.651 10.0656H120.403V14.5653H115.906ZM128.006 3.55025H120.403V6.76294H128.006C129.428 6.76294 130.14 6.23084 130.14 5.16664C130.14 4.62125 129.964 4.21541 129.613 3.94944C129.269 3.68331 128.734 3.55025 128.006 3.55025Z" fill="#818181"/>
<path d="M0 26.4483L4.66011 0.0195312H13.3999L24.9469 16.2565L42.1451 0.0195312H50.81L46.1499 26.4483H37.9529L40.8875 9.80596L27.3417 22.9466H20.0805L11.1169 10.1008L8.23433 26.4483H0Z" fill="#818181"/>
<path d="M51.3125 24.298L53.5769 23.9586C53.7008 24.2741 53.9773 24.5084 54.4065 24.6614C54.8355 24.8111 55.46 24.8861 56.2799 24.8861C56.9601 24.8861 57.502 24.8638 57.9056 24.8192C58.3092 24.7745 58.5936 24.7091 58.759 24.6232C58.9242 24.5371 59.0068 24.4255 59.0068 24.2884C59.0068 24.1578 58.9702 24.0574 58.8971 23.9872C58.824 23.9172 58.6826 23.8614 58.4729 23.82C58.2663 23.7753 57.9564 23.7418 57.5433 23.7196L54.4875 23.6047C52.5011 23.4901 51.508 22.824 51.508 21.6065C51.508 20.8639 51.9036 20.2965 52.6951 19.9045C53.4896 19.5124 54.6782 19.3164 56.2609 19.3164C57.6561 19.3164 58.7463 19.4838 59.5312 19.8184C60.3162 20.1499 60.8121 20.6518 61.0186 21.3244L58.7542 21.6638C58.6398 21.3802 58.3871 21.1745 57.9961 21.047C57.6053 20.9164 57.0205 20.851 56.2419 20.851C55.5999 20.851 55.0913 20.8733 54.7164 20.918C54.3445 20.9626 54.0838 21.0263 53.9345 21.1093C53.7883 21.1921 53.7152 21.302 53.7152 21.4391C53.7152 21.6143 53.8073 21.7418 53.9917 21.8216C54.1792 21.8981 54.532 21.9506 55.05 21.9794L58.2346 22.0941C60.2145 22.2183 61.2045 22.8813 61.2045 24.0829C61.2045 25.6446 59.5567 26.4255 56.2609 26.4255C53.3879 26.4255 51.7384 25.7163 51.3125 24.298Z" fill="#CFCFCF"/>
<path d="M62.5781 26.2972V19.4414H71.1879V20.9808H64.6758V22.0375H70.506V23.5673H64.6758V24.7578H71.2592V26.2972H62.5781Z" fill="#CFCFCF"/>
<path d="M72.7266 26.2972V19.4414H78.9288C79.8346 19.4414 80.5291 19.6439 81.012 20.0486C81.4952 20.4503 81.7367 21.0015 81.7367 21.7027C81.7367 22.3084 81.5366 22.8119 81.136 23.2135C80.7356 23.612 80.1715 23.8493 79.4437 23.9258L82.08 26.2972H79.2578L76.9266 24.141H74.8862V26.2972H72.7266ZM78.5379 21.0192H74.8862V22.5586H78.5379C79.2212 22.5586 79.5629 22.3036 79.5629 21.7936C79.5629 21.5322 79.4786 21.3378 79.3102 21.2103C79.145 21.0828 78.8875 21.0192 78.5379 21.0192Z" fill="#CFCFCF"/>
<path d="M84.617 19.4414L87.5583 24.2606L90.538 19.4414H92.9263L88.6214 26.2972H86.4046L82.1094 19.4414H84.617Z" fill="#CFCFCF"/>
<path d="M93.8828 26.2972V19.4414H96.0424V26.2972H93.8828Z" fill="#CFCFCF"/>
<path d="M98.8373 25.4885C97.9093 24.8606 97.4453 23.9872 97.4453 22.8686C97.4453 21.7499 97.9125 20.8781 98.8469 20.2534C99.7844 19.6287 101.099 19.3164 102.789 19.3164C104.185 19.3164 105.302 19.5172 106.141 19.9188C106.983 20.3203 107.518 20.9116 107.747 21.6925L105.464 22.1466C105.337 21.7514 105.055 21.4582 104.62 21.2669C104.188 21.0757 103.578 20.9801 102.789 20.9801C101.718 20.9801 100.927 21.1363 100.415 21.4487C99.9068 21.7578 99.6525 22.2311 99.6525 22.8686C99.6525 23.5123 99.9052 23.9889 100.411 24.298C100.919 24.604 101.712 24.757 102.789 24.757C103.597 24.757 104.218 24.6598 104.653 24.4654C105.092 24.2677 105.365 23.965 105.473 23.557L107.728 23.9872C107.499 24.7937 106.969 25.4024 106.136 25.8135C105.303 26.2215 104.188 26.4255 102.789 26.4255C101.083 26.4255 99.7654 26.1132 98.8373 25.4885Z" fill="#CFCFCF"/>
<path d="M109.102 26.2972V19.4414H117.711V20.9808H111.199V22.0375H117.029V23.5673H111.199V24.7578H117.783V26.2972H109.102Z" fill="#CFCFCF"/>
<path d="M126.99 21.0383L122.537 26.2972H119.882L124.444 21.11H118.438V19.4414H126.99V21.0383Z" fill="#CFCFCF"/>
<path d="M135.998 21.0383L131.545 26.2972H128.89L133.452 21.11H127.445V19.4414H135.998V21.0383Z" fill="#CFCFCF"/>
</svg>
