<svg width="32" height="32" viewBox="0 0 32 32" fill="none" xmlns="http://www.w3.org/2000/svg">
<path d="M12.9951 11.021C17.0668 10.9528 21.1228 11.0575 25.1821 11.2353C26.8102 11.3065 28.6634 11.3008 30.2549 11.5859C31.9284 11.8857 32.023 12.8167 31.9964 14.2257C31.961 16.0783 31.9077 18.4999 30.0361 19.5529C27.9363 20.734 24.2605 21.3984 21.8317 21.8289C19.4633 22.2484 16.9375 22.6676 14.5337 22.442C11.6288 22.1693 8.45138 21.5841 5.63634 20.8598C3.85551 20.4015 1.31334 19.7507 0.576663 17.9768C0.134339 16.9125 -0.125407 14.2656 0.0611487 13.1448C0.322883 11.5739 1.75606 11.5505 3.12997 11.4236C6.31255 11.1302 9.78472 11.0745 12.9951 11.021ZM11.6443 11.3215C8.56475 11.4616 5.39569 11.4586 2.33522 11.7995C0.546432 11.9991 0.307768 12.6695 0.366639 14.2644C0.421133 15.7464 0.520577 17.7998 1.64071 18.9251C2.45097 19.739 4.60372 20.3047 5.75527 20.5966C7.78789 21.1118 9.95655 21.5219 12.0365 21.8341C13.8929 22.1128 15.5473 22.3727 17.4327 22.178C20.2768 21.8842 23.4009 21.3216 26.1638 20.6263C28.9005 19.9375 31.0739 19.4776 31.4789 16.4436C31.5906 15.6071 31.733 14.2934 31.6797 13.4713C31.6022 12.2725 30.8703 11.929 29.7108 11.7998C26.733 11.468 23.5334 11.4067 20.531 11.3498C20.4248 11.3479 20.3249 11.3008 20.2167 11.3087L11.6443 11.3215Z" fill="#363636"/>
<path d="M11.6448 11.3223L20.2172 11.3095C20.3254 11.3016 20.4252 11.3483 20.5314 11.3505C23.5338 11.4074 26.7335 11.4688 29.7112 11.8006C30.8707 11.9298 31.6026 12.2733 31.6802 13.472C31.7335 14.2942 31.5907 15.6079 31.4793 16.4443C31.0744 19.4784 28.9006 19.9386 26.1643 20.6271C23.4013 21.3223 20.2776 21.885 17.4332 22.1787C15.5481 22.3735 13.8934 22.1136 12.037 21.8349C9.957 21.5227 7.78794 21.1125 5.75572 20.5973C4.60417 20.3054 2.45142 19.7398 1.64115 18.9259C0.521024 17.8002 0.421581 15.7472 0.367086 14.2652C0.308613 12.6706 0.546879 11.9998 2.33567 11.8006C5.39613 11.4598 8.56519 11.4628 11.6448 11.3227V11.3223ZM11.7243 11.8115C8.8313 11.9633 5.80345 11.9113 2.93193 12.2522C1.26566 12.4499 1.15507 13.2623 1.20161 14.6791C1.27242 16.8307 1.37584 18.5662 3.66781 19.4901C5.87386 20.3789 8.86631 20.8862 11.2474 21.2666C13.0664 21.5573 15.212 21.9332 17.0366 21.7663C19.1022 21.5777 21.2709 21.2138 23.3023 20.8146C25.0434 20.4727 27.2017 20.0523 28.792 19.3168C30.5159 18.5191 30.6977 16.839 30.8035 15.2037C30.9006 13.7067 31.0434 12.4695 29.115 12.2522C26.3186 11.9373 23.2733 11.8917 20.4519 11.8398C20.3456 11.8379 20.2458 11.7908 20.1376 11.7987L11.7239 11.8115H11.7243Z" fill="white"/>
<path d="M23.3038 20.8137C21.2724 21.2125 19.1038 21.5763 17.0381 21.7654C15.2135 21.9322 13.0675 21.5564 11.2489 21.2656C8.86826 20.8849 5.87541 20.3779 3.66936 19.4891C1.37739 18.5656 1.27397 16.8298 1.20317 14.6782C1.15663 13.2613 1.26721 12.4489 2.93348 12.2512C5.805 11.9104 8.83285 11.9627 11.7259 11.8106L20.1396 11.7978C20.2478 11.7899 20.3476 11.8369 20.4538 11.8388C23.2752 11.8908 26.3206 11.9364 29.1169 12.2512C31.0453 12.4682 30.9025 13.7057 30.8055 15.2028C30.6996 16.8381 30.5179 18.5182 28.7939 19.3159M8.83325 14.9964H14.8925C14.922 14.9964 15.0497 15.0913 15.0636 15.135C15.1925 15.5353 14.8508 15.7071 14.49 15.7436C13.5679 15.8374 12.1551 15.7741 11.1956 15.75C11.017 15.7455 10.8181 15.6721 10.6264 15.7157L9.78672 18.7193H14.7732C15.0031 18.7193 15.4383 18.5735 15.624 18.4338C15.9856 18.1615 16.1105 17.4892 16.1722 17.0723C16.2159 16.7774 16.352 16.3541 15.9299 16.2773L15.9061 16.2005C16.0596 16.1598 16.1929 15.9963 16.2434 15.8611C16.3345 15.6167 16.603 14.5968 16.6109 14.3659C16.6244 13.9735 16.2493 13.8055 15.8874 13.7916L9.17534 13.7905L8.83325 14.9964ZM21.1905 16.8015C21.175 17.1695 20.9534 17.4633 20.5652 17.5446C19.737 17.5085 18.8066 17.6229 17.9904 17.5552C17.6344 17.5254 17.5035 17.3958 17.5389 17.0505L18.0572 15.2465C18.1471 15.1049 18.3794 15.0141 18.5477 14.9964L22.9128 14.9915C23.2303 14.4578 23.3019 13.8586 22.4824 13.792C21.0501 13.8616 19.5302 13.7042 18.1085 13.7916C16.5688 13.8861 17.0413 15.2649 16.4267 16.1884C16.4196 16.231 16.5878 16.3824 16.6113 16.4908C16.671 16.7654 16.4041 17.7898 16.2915 18.0888C16.1789 18.3879 15.9407 18.4451 16.4208 18.6647L21.2112 18.6835C22.0286 18.6172 22.1714 17.9329 22.3472 17.3145C22.494 16.7978 22.5914 16.2652 22.7394 15.7489H20.3556C20.3571 16.0302 20.1006 16.4784 20.0926 16.7243C20.091 16.7703 20.099 16.7733 20.1372 16.8019H21.1901L21.1905 16.8015Z" fill="#363636"/>
<path d="M11.375 17.5169L11.581 16.8092C11.6745 16.7772 11.7708 16.7682 11.8702 16.7629C12.7839 16.7136 13.7203 16.7893 14.6355 16.7814C15.1805 16.8891 14.7358 17.5165 14.4943 17.5165H11.3754L11.375 17.5169Z" fill="#363636"/>
</svg>
