<svg width="32" height="32" viewBox="0 0 32 32" fill="none" xmlns="http://www.w3.org/2000/svg">
<path d="M26 15.4736V16.5264C25.9644 16.6091 25.9892 16.7162 25.983 16.8065C25.6801 21.1322 21.5007 24.5186 17.3981 24.9298L16.6844 25H15.3537L14.388 24.8952C10.1976 24.308 6.42539 21.1056 6.03814 16.7043C6.02899 16.5992 6.04141 16.476 6.00415 16.3732C6.01395 16.1326 5.99108 15.8822 6.00415 15.643C6.32277 9.86012 12.0227 6.43358 17.3981 7.08699C21.6442 7.603 25.8049 10.9314 26 15.4733V15.4736ZM17.3723 8.61722C17.0138 8.63469 16.7374 8.99517 16.7034 9.33687C16.6481 9.8934 16.739 10.5336 16.7034 11.0991C16.7406 11.4253 16.9959 11.5172 17.2821 11.5515C18.338 11.5007 19.452 11.6164 20.501 11.5515C20.5945 11.5456 20.7291 11.5268 20.8167 11.4961C21.0233 11.4233 21.1896 11.0674 21.3272 10.8902C21.3958 10.8015 21.4723 10.7205 21.553 10.6424C20.7164 9.96656 19.8429 9.3652 18.8285 8.99088C18.4837 8.86369 17.7191 8.60042 17.3726 8.61722H17.3723ZM10.4381 10.6651C10.5397 10.7238 10.6348 10.8173 10.7129 10.9053C10.8368 11.0454 11.0423 11.422 11.1812 11.4862C11.3649 11.5713 11.5796 11.533 11.7734 11.5686C12.7005 11.5301 13.6652 11.6174 14.588 11.5686C15.0406 11.5446 15.3076 11.4678 15.3377 10.9656C15.3606 10.5801 15.3851 9.51183 15.2913 9.17706C15.0674 8.37734 14.2612 8.65512 13.6903 8.8291C12.4694 9.20111 11.4495 9.85749 10.4384 10.6193V10.6648L10.4381 10.6651ZM9.09954 13.2363C8.76556 13.2946 8.54236 13.9958 8.4685 14.2815C7.82831 16.7603 8.93026 19.9823 10.7714 21.6973C11.5417 22.4153 13.0345 23.4355 14.1145 23.4213C14.6635 23.4141 15.1756 22.931 15.3018 22.4091C15.3609 22.1639 15.3704 21.5329 15.3325 21.2769C15.2857 20.9632 15.0129 20.8522 14.7586 20.7345C13.4165 20.1131 12.2884 20.1012 11.3113 18.8095C10.1871 17.3231 10.4204 15.5494 9.76914 13.9286C9.66064 13.6584 9.45411 13.1743 9.09954 13.2363ZM22.7781 13.2359C22.4327 13.2913 22.1912 14.0235 22.1004 14.3187C21.6157 15.8895 21.7105 17.5004 20.6497 18.8679C19.6671 20.1348 18.5024 20.1398 17.1782 20.7685C16.8106 20.9428 16.6749 21.0413 16.6498 21.4753C16.6034 22.2756 16.7253 23.1129 17.5981 23.3739C18.3919 23.6111 19.736 22.8589 20.3788 22.3985C21.6481 21.4894 22.4461 20.4357 23.0428 18.9881C23.6726 17.4605 23.966 15.7758 23.4941 14.1533C23.4095 13.862 23.169 13.1733 22.7778 13.2363L22.7781 13.2359ZM12.3008 13.5595C11.8959 13.6126 11.7711 13.9407 11.7479 14.3098C11.6655 15.6252 12.2851 17.9238 13.5001 18.6069C13.8845 18.8231 14.4838 18.9628 14.9246 18.9384C15.2047 18.9229 15.3099 18.7769 15.3374 18.5054V14.1572C15.3063 13.8758 15.1851 13.5901 14.8733 13.5552L12.3008 13.5598V13.5595ZM16.8759 13.6794C16.7481 13.8066 16.6952 14.0653 16.6838 14.2416C16.5975 15.6008 16.7504 17.0516 16.6838 18.4204C16.6991 18.9522 16.9995 18.9476 17.4351 18.9212C17.8053 18.8988 18.257 18.7667 18.5766 18.5776C19.6416 17.9482 20.2207 16.0305 20.2726 14.8535C20.2939 14.3737 20.3556 13.6514 19.7403 13.5565L17.1308 13.5546C17.054 13.5635 16.9302 13.6254 16.8759 13.6794Z" fill="#363636"/>
<path d="M6.00448 15.6433V7H26V15.4736C25.8052 10.9314 21.6445 7.603 17.3981 7.08699C12.0227 6.43358 6.32277 9.86012 6.00448 15.6433Z" fill="white"/>
<path d="M15.3537 24.9997H6.00448V16.3735C6.04173 16.476 6.02899 16.5995 6.03846 16.7047C6.42571 21.1059 10.1979 24.3084 14.388 24.8952L15.3537 25V24.9997Z" fill="white"/>
<path d="M26 16.5264V25H16.6844L17.3981 24.9298C21.5007 24.5186 25.6801 21.1322 25.983 16.8065C25.9892 16.7162 25.9644 16.6091 26 16.5264Z" fill="white"/>
<path d="M22.7781 13.2359C23.1693 13.173 23.4098 13.8617 23.4945 14.1529C23.966 15.7754 23.6729 17.4602 23.0432 18.9878C22.4461 20.4357 21.6484 21.4894 20.3791 22.3982C19.7363 22.8585 18.3922 23.6108 17.5985 23.3736C16.7256 23.1129 16.604 22.2753 16.6501 21.4749C16.6753 21.041 16.8112 20.9424 17.1785 20.7681C18.5027 20.1394 19.6674 20.1345 20.6501 18.8675C21.7105 17.5001 21.6161 15.8891 22.1007 14.3184C22.1919 14.0231 22.4334 13.291 22.7785 13.2356L22.7781 13.2359Z" fill="white"/>
<path d="M9.09954 13.2363C9.45411 13.1743 9.66064 13.6584 9.76914 13.9286C10.4208 15.5494 10.1871 17.3231 11.3113 18.8095C12.2881 20.1012 13.4165 20.1134 14.7586 20.7345C15.0129 20.8522 15.2857 20.9632 15.3325 21.2769C15.3707 21.5329 15.3612 22.1639 15.3018 22.4091C15.1756 22.931 14.6635 23.4141 14.1145 23.4213C13.0345 23.4355 11.5417 22.4153 10.7714 21.6973C8.93059 19.9819 7.82864 16.76 8.4685 14.2815C8.54236 13.9961 8.76556 13.2946 9.09954 13.2363Z" fill="white"/>
<path d="M16.8759 13.6794C16.9305 13.6251 17.0544 13.5631 17.1308 13.5546L19.7403 13.5565C20.3556 13.6514 20.2939 14.3737 20.2726 14.8535C20.2207 16.0305 19.6416 17.9482 18.5766 18.5776C18.2566 18.7667 17.8053 18.8988 17.4351 18.9212C16.9998 18.9476 16.6995 18.9522 16.6838 18.4204C16.7504 17.0516 16.5975 15.6008 16.6838 14.2416C16.6949 14.0656 16.7481 13.8066 16.8759 13.6794Z" fill="white"/>
<path d="M12.3008 13.5595L14.8733 13.5549C15.1851 13.5898 15.3063 13.8755 15.3374 14.1569V18.5051C15.3099 18.7766 15.2047 18.9226 14.9246 18.9381C14.4838 18.9624 13.8845 18.8227 13.5001 18.6066C12.2851 17.9235 11.6655 15.6249 11.7479 14.3095C11.7711 13.9404 11.8959 13.6126 12.3008 13.5592V13.5595Z" fill="white"/>
<path d="M10.4381 10.6651V10.6196C11.4492 9.85782 12.4691 9.20144 13.69 8.82942C14.2612 8.65544 15.0671 8.37734 15.291 9.17738C15.3848 9.51216 15.3606 10.5804 15.3374 10.966C15.3073 11.4681 15.0406 11.5449 14.5877 11.5689C13.6648 11.6177 12.7002 11.5304 11.773 11.5689C11.5793 11.5334 11.3649 11.5716 11.1809 11.4866C11.042 11.4223 10.8368 11.0457 10.7126 10.9057C10.6345 10.8177 10.5391 10.7241 10.4378 10.6654L10.4381 10.6651Z" fill="white"/>
<path d="M17.3723 8.61722C17.7187 8.60042 18.4834 8.86369 18.8282 8.99088C19.8426 9.3652 20.7161 9.96655 21.5527 10.6424C21.4723 10.7201 21.3958 10.8012 21.3269 10.8902C21.1893 11.0678 21.0226 11.4233 20.8164 11.4961C20.7291 11.5271 20.5942 11.5459 20.5007 11.5515C19.4517 11.6164 18.3377 11.5007 17.2818 11.5515C16.9955 11.5172 16.7403 11.4253 16.703 11.0991C16.7387 10.5336 16.6481 9.89373 16.703 9.33687C16.737 8.99517 17.0135 8.63469 17.372 8.61722L17.3723 8.61722Z" fill="white"/>
</svg>
