<svg width="32" height="32" viewBox="0 0 32 32" fill="none" xmlns="http://www.w3.org/2000/svg">
<path d="M26.6849 11.5339C24.4064 10.7674 21.538 10.2411 18.3654 10.0651C17.6085 10.0231 16.8509 10.0014 16.0931 10H15.9069C15.1357 10.0018 14.3777 10.0238 13.6362 10.0651C10.4628 10.2411 7.59364 10.7656 5.31586 11.5348C2.05251 12.6313 0 14.2267 0 16C0 17.5013 1.47289 18.8759 3.90555 19.9284C4.89269 20.3561 6.03862 20.7309 7.3097 21.039C8.41004 21.3038 9.52099 21.5094 10.6388 21.655C12.4183 21.8879 14.2085 22.0031 16 21.9999C17.7915 22.0031 19.5817 21.8879 21.3612 21.655C22.479 21.509 23.5899 21.3034 24.6903 21.039C25.9606 20.7309 27.1073 20.3552 28.0945 19.9284C30.5279 18.8767 32 17.5022 32 16C32 14.2258 29.9483 12.6321 26.6849 11.5339ZM6.64327 17.6984C5.97761 18.2414 5.10232 18.3496 4.35375 17.9668C2.94891 17.2496 2.13229 16.3951 2.13229 15.4772C2.13229 14.3262 3.41745 13.2728 5.53879 12.4676C7.84239 11.5928 11.1316 11.0103 14.8345 10.9091L14.9831 10.9055C15.2061 10.8994 15.429 10.8967 15.6558 10.8941C15.5041 10.9205 15.3586 10.9627 15.2194 11.0217L15.2139 11.0235C15.167 11.0437 15.12 11.0648 15.0754 11.0886L15.0684 11.0833C14.513 11.3341 13.7621 11.9079 13.5196 12.098L13.4782 12.1314L13.4398 12.1613L7.52246 16.9821L6.64327 17.6984ZM21.599 19.6723C19.886 19.9231 17.9923 20.0621 16.0008 20.0621C14.0085 20.0621 12.1148 19.9231 10.4025 19.6723C8.83813 19.3555 9.59218 18.1622 10.0013 17.65C10.0654 17.5684 10.133 17.4902 10.2039 17.4159L10.2062 17.4133C11.5964 15.8247 13.0752 14.3374 14.6335 12.9604H14.6358C14.6663 12.9319 14.6976 12.9046 14.7297 12.8785C14.9464 12.6964 15.4994 12.2801 16.0008 12.281C16.4998 12.2801 17.0536 12.6964 17.2703 12.8785C17.2984 12.9006 17.3255 12.9241 17.3517 12.9489L17.3618 12.9577L17.3665 12.9621C18.9254 14.3399 20.405 15.8278 21.7961 17.4168C21.8611 17.4853 21.9235 17.557 21.9831 17.6315C22.3898 18.1331 23.1806 19.3502 21.599 19.6723ZM27.647 17.9668C27.2781 18.1531 26.872 18.2264 26.4698 18.1793C26.0676 18.1322 25.6836 17.9663 25.3567 17.6984L24.4775 16.9821L18.5602 12.1613C18.5602 12.1613 18.5531 12.1569 18.5406 12.1455L18.5226 12.1314L18.4812 12.098C18.2387 11.9079 17.4878 11.3341 16.9316 11.0833L16.9246 11.0886C16.881 11.0657 16.8367 11.0448 16.7916 11.0261L16.7814 11.0217C16.6407 10.9625 16.495 10.9197 16.3465 10.8941C16.6201 10.8958 16.8936 10.9008 17.167 10.9091C20.8692 11.0103 24.1584 11.5928 26.4612 12.4667C28.5825 13.2728 29.8685 14.3262 29.8685 15.4772C29.8685 16.3951 29.0527 17.2496 27.647 17.9668Z" fill="#363636"/>
</svg>
