<svg width="33" height="32" viewBox="0 0 33 32" fill="none" xmlns="http://www.w3.org/2000/svg">
<path d="M11.5741 17.9688L9.65629 16.6887L7.73852 17.9688H6.4375L9.00578 16.2545L6.4375 14.5402H7.73852L9.65629 15.8202L11.5741 14.5402H12.8751L10.3068 16.2545L12.8751 17.9688H11.5741Z" fill="#363636"/>
<path d="M0 17.2368V15.2721C0 14.868 0.380419 14.5402 0.849461 14.5402H5.85761V15.1636H1.39808C1.16356 15.1636 0.973655 15.3272 0.973655 15.5293V15.9682H5.49889V16.5921H0.973655V16.9786C0.973655 17.1807 1.16356 17.3443 1.39808 17.3443H5.85761V17.9688H0.849461C0.380419 17.9688 0 17.641 0 17.2368Z" fill="#363636"/>
<path d="M13.4531 17.2368V15.2721C13.4531 14.868 13.8335 14.5402 14.3026 14.5402H19.3107V15.1636H14.8512C14.6167 15.1636 14.4268 15.3272 14.4268 15.5293V15.9682H18.952V16.5921H14.4268V16.9786C14.4268 17.1807 14.6167 17.3443 14.8512 17.3443H19.3107V17.9688H14.3026C13.8335 17.9688 13.4531 17.641 13.4531 17.2368Z" fill="#363636"/>
<path d="M31.3519 17.9688H26.3438V14.5402H31.3519C31.8209 14.5402 32.2014 14.868 32.2014 15.2721V17.2368C32.2014 17.641 31.8209 17.9688 31.3519 17.9688ZM31.2277 15.5298C31.2277 15.3277 31.0378 15.1641 30.8033 15.1641H27.3174V17.3454H30.8033C31.0378 17.3454 31.2277 17.1817 31.2277 16.9791V15.5298Z" fill="#363636"/>
<path d="M19.9062 17.2368V15.2721C19.9062 14.868 20.2867 14.5402 20.7557 14.5402H25.7639V15.1636H21.3043C21.0698 15.1636 20.8799 15.3272 20.8799 15.5293V15.9682H25.4051V16.5921H20.8799V16.9786C20.8799 17.1807 21.0698 17.3443 21.3043 17.3443H25.7639V17.9688H20.7557C20.2867 17.9688 19.9062 17.641 19.9062 17.2368Z" fill="#363636"/>
</svg>
