<svg width="32" height="32" viewBox="0 0 32 32" fill="none" xmlns="http://www.w3.org/2000/svg">
<path d="M16.8554 9.00383C19.6811 9.06368 22.8142 9.77234 25.1448 11.3962C29.1642 14.1969 28.8456 18.3124 24.783 20.8664C20.1744 23.7638 12.327 23.739 7.83545 20.6157C4.21307 18.0967 3.99447 14.2958 7.56667 11.5987C9.90762 9.83145 13.2378 9.0655 16.146 9.00383C16.381 8.99872 16.6208 8.99872 16.8554 9.00383ZM10.9679 14.6738H27.6374L25.5611 14.0491C25.0187 13.8915 24.805 13.3974 24.4462 13.0204C20.8841 9.27715 11.9779 9.27606 8.46669 13.108C7.20458 14.4855 6.82279 16.2123 7.73396 17.8975C9.87379 21.8553 17.5844 22.7698 21.2636 20.7197C23.2626 19.6056 23.8682 17.4545 21.1532 16.8068C19.8974 16.5072 18.3457 16.5458 17.0487 16.551C15.6475 16.5564 14.0761 16.6845 12.6861 16.5889C12.269 16.5601 11.956 16.4232 11.6969 16.0981L10.9675 14.6742L10.9679 14.6738Z" fill="#393939"/>
</svg>
