<svg width="32" height="32" viewBox="0 0 32 32" fill="none" xmlns="http://www.w3.org/2000/svg">
<path d="M26.1126 19.3381C26.6049 18.6181 26.8894 17.83 26.9689 16.9703C27.0059 16.5684 27.0108 16.1664 26.9787 15.7651C26.9578 15.5002 26.9306 15.234 26.879 14.9737C26.7625 14.3881 26.5122 13.8505 26.1921 13.3462C25.607 12.4236 24.8302 11.6755 23.9062 11.0709C23.0736 10.526 22.1698 10.1201 21.22 9.80734C19.7152 9.31163 18.1643 9.06573 16.5792 9.01131C15.2285 8.96476 13.8889 9.05983 12.566 9.33523C11.5521 9.54637 10.5681 9.848 9.62602 10.2703C8.42031 10.8112 7.35407 11.5397 6.46984 12.5049C5.63861 13.4131 5.14838 14.4695 5.02704 15.6792C4.96149 16.3323 5.01518 16.9802 5.18743 17.6162C5.58073 19.0693 6.41684 20.2351 7.65393 21.1328C8.30874 21.6075 9.03049 21.9616 9.79826 22.237C10.8241 22.6055 11.8575 22.9321 12.96 22.9898C13.5137 23.0186 14.0639 22.993 14.5939 22.8272C15.1943 22.639 15.5751 22.2429 15.7382 21.6488C15.8596 21.2056 15.8937 20.7558 15.8937 20.3007C15.8937 17.6995 15.8937 15.0983 15.8937 12.4971C15.8937 12.4774 15.8944 12.4577 15.8937 12.4381C15.8902 12.3049 15.8589 12.2846 15.7382 12.3456C15.6211 12.4046 15.5074 12.4708 15.3896 12.5292C14.1671 13.1292 12.9447 13.7292 11.7208 14.3259C11.6518 14.3593 11.6253 14.398 11.6225 14.4708C11.5925 15.2819 11.5604 16.093 11.527 16.9041C11.5061 17.407 11.4935 17.9106 11.4049 18.4077C11.3101 18.9381 11.0577 19.3932 10.6427 19.7499C10.2997 20.0443 9.8938 20.2181 9.42727 20.2515C9.0542 20.2784 8.69227 20.2548 8.33733 20.1256C7.4789 19.8128 6.87081 19.2398 6.47333 18.4516C5.99007 17.4936 5.85967 16.4799 6.02006 15.4327C6.16092 14.518 6.55283 13.7036 7.1379 12.9764C7.86871 12.0682 8.7906 11.3876 9.84568 10.8696C11.1727 10.2185 12.5932 9.87554 14.0625 9.70505C14.5276 9.65128 14.9963 9.62243 15.4642 9.59555C16.2215 9.55096 16.9788 9.56211 17.7333 9.64604C18.5471 9.73587 19.3477 9.89128 20.1336 10.1162C21.2382 10.4329 22.2898 10.865 23.2521 11.486C24.2953 12.1587 25.0987 13.0308 25.6161 14.1416C25.8532 14.6511 25.9982 15.1861 26.0505 15.7422C26.0952 16.2182 26.0735 16.693 25.9934 17.1651C25.8567 17.969 25.5485 18.6981 24.9738 19.302C24.3218 19.9866 23.5185 20.3289 22.5464 20.2312C21.9613 20.1728 21.4781 19.9151 21.1203 19.4588C20.72 18.9486 20.5618 18.3598 20.5394 17.7297C20.5157 17.0687 20.4927 16.4077 20.469 15.7468C20.4565 15.3848 20.4341 15.0222 20.4307 14.6596C20.4279 14.3704 20.4606 14.3757 20.1566 14.2295C19.3156 13.8236 18.4753 13.417 17.6364 13.0066C17.2278 12.8066 16.824 12.5954 16.4167 12.3922C16.3428 12.3561 16.2619 12.3345 16.1657 12.299V12.4158C16.1636 14.4419 16.1608 16.4681 16.1622 18.4942C16.1629 19.2981 16.1692 20.1027 16.1838 20.9066C16.1894 21.22 16.2438 21.5288 16.3644 21.8246C16.5074 22.1754 16.711 22.4731 17.066 22.6613C17.4139 22.8449 17.7863 22.9308 18.1747 22.9668C18.7696 23.0226 19.3616 22.9839 19.9495 22.8888C20.9069 22.734 21.8225 22.4475 22.7082 22.0652C24.1056 21.462 25.2625 20.5813 26.1126 19.3381Z" fill="#363636"/>
</svg>
