<svg width="32" height="32" viewBox="0 0 32 32" fill="none" xmlns="http://www.w3.org/2000/svg">
<g opacity="0.983">
<path fill-rule="evenodd" clip-rule="evenodd" d="M0 14C0.598552 14 1.19711 14 1.79566 14C1.79566 14.3983 1.79566 14.7965 1.79566 15.1948C2.47327 15.1948 3.15087 15.1948 3.82848 15.1948C3.82848 14.7965 3.82848 14.3983 3.82848 14C4.42703 14 5.02559 14 5.62414 14C5.62414 15.3333 5.62414 16.6667 5.62414 18C5.02559 18 4.42703 18 3.82848 18C3.82848 17.5613 3.82848 17.1226 3.82848 16.684C3.15087 16.684 2.47327 16.684 1.79566 16.684C1.79566 17.1226 1.79566 17.5613 1.79566 18C1.19711 18 0.598552 18 0 18C0 16.6667 0 15.3333 0 14Z" fill="#363636"/>
<path fill-rule="evenodd" clip-rule="evenodd" d="M9.1477 14C9.80272 14 10.4577 14 11.1128 14C11.9134 15.3309 12.7096 16.6643 13.5013 18C12.8463 18 12.1913 18 11.5363 18C10.7445 16.6643 9.94832 15.3309 9.1477 14Z" fill="#363636"/>
<path fill-rule="evenodd" clip-rule="evenodd" d="M12.8745 14C13.5578 14 14.2411 14 14.9243 14C15.3612 14.7285 15.7959 15.4587 16.2287 16.1905C15.9002 16.7657 15.5614 17.3342 15.2123 17.8961C14.4286 16.5998 13.6493 15.3011 12.8745 14Z" fill="#363636"/>
<path fill-rule="evenodd" clip-rule="evenodd" d="M17.7364 14C18.3914 14 19.0464 14 19.7014 14C18.9008 15.3309 18.1046 16.6643 17.3129 18C16.6578 18 16.0028 18 15.3478 18C16.1368 16.6624 16.933 15.3291 17.7364 14Z" fill="#363636"/>
<path fill-rule="evenodd" clip-rule="evenodd" d="M21.5479 14C22.203 14 22.8579 14 23.513 14C24.3136 15.3309 25.1098 16.6643 25.9015 18C25.2465 18 24.5915 18 23.9365 18C23.1445 16.6638 22.3483 15.3304 21.5479 14Z" fill="#363636"/>
<path fill-rule="evenodd" clip-rule="evenodd" d="M26.9518 14C27.5503 14 28.149 14 28.7475 14C28.7475 14.8369 28.7475 15.6739 28.7475 16.5108C29.8317 16.5108 30.9158 16.5108 32 16.5108C32 17.0072 32 17.5036 32 18C30.3173 18 28.6345 18 26.9518 18C26.9518 16.6667 26.9518 15.3333 26.9518 14Z" fill="#363636"/>
<path fill-rule="evenodd" clip-rule="evenodd" d="M8.72419 18C8.04094 18 7.35768 18 6.67443 18C7.4448 16.6907 8.22405 15.3862 9.01218 14.0866C9.36133 14.6485 9.70013 15.217 10.0286 15.7922C9.58977 16.5263 9.15498 17.2622 8.72419 18Z" fill="#363636"/>
<path fill-rule="evenodd" clip-rule="evenodd" d="M21.1075 18C20.4299 18 19.7522 18 19.0746 18C19.8464 16.6936 20.6228 15.3891 21.4039 14.0866C21.752 14.6511 22.0937 15.2196 22.4288 15.7922C21.9916 16.5305 21.5511 17.2665 21.1075 18Z" fill="#363636"/>
</g>
</svg>
