<svg width="32" height="32" viewBox="0 0 32 32" fill="none" xmlns="http://www.w3.org/2000/svg">
<path d="M4.58619 15C4.603 15 4.61681 15.0135 4.61683 15.0302V17.667C4.61683 17.8509 4.46693 18 4.28036 18H0.0306426C0.0138208 18 0 17.9863 0 17.9697V17.4144C0 17.3977 0.0138208 17.384 0.0306426 17.384H3.69697C3.70538 17.384 3.71221 17.3773 3.71221 17.369V15.0302C3.71221 15.0135 3.72604 15 3.74285 15H4.58619ZM9.98226 15C9.99906 15 10.0127 15.0136 10.0128 15.0302V15.5855C10.0128 15.6021 9.99906 15.6158 9.98226 15.6158H6.3426C6.3342 15.6158 6.32738 15.6226 6.32735 15.6309V16.1766C6.32739 16.1849 6.33421 16.1917 6.3426 16.1917H9.74897C9.76577 16.1917 9.77958 16.2052 9.77961 16.2218V16.7773C9.77959 16.7939 9.76578 16.8075 9.74897 16.8075H6.3426C6.33418 16.8075 6.32735 16.8144 6.32735 16.8227V17.3682C6.32736 17.3765 6.3342 17.3833 6.3426 17.3833H9.98226C9.99906 17.3833 10.0128 17.397 10.0128 17.4136V17.9697C10.0128 17.9863 9.99906 18 9.98226 18H5.75921C5.57339 18 5.42272 17.8509 5.42272 17.667V15.3335C5.42276 15.149 5.57342 15 5.75921 15H9.98226ZM15.4859 15C15.5028 15 15.5164 15.0136 15.5164 15.0302V15.5855C15.5164 15.6021 15.5028 15.6158 15.4859 15.6158H13.6356C13.6272 15.6158 13.6202 15.6226 13.6202 15.6309V17.9697C13.6202 17.9863 13.6065 18 13.5897 18H12.7463C12.7295 18 12.7157 17.9863 12.7157 17.9697V15.6309C12.7157 15.6226 12.7088 15.6159 12.7004 15.6158H10.85C10.8332 15.6158 10.8194 15.6021 10.8194 15.5855V15.0302C10.8194 15.0135 10.8332 15 10.85 15H15.4859ZM22.7614 15C22.7782 15 22.792 15.0135 22.792 15.0302V17.369C22.792 17.3773 22.799 17.384 22.8074 17.384H25.5623C25.5706 17.384 25.5776 17.3773 25.5776 17.369V15.0302C25.5776 15.0136 25.5914 15 25.6082 15H26.4507C26.4675 15 26.4813 15.0135 26.4813 15.0302V17.667C26.4813 17.8509 26.3306 18 26.145 18H22.2239C22.0382 18 21.8875 17.8509 21.8875 17.667V15.0302C21.8875 15.0135 21.9013 15 21.9182 15H22.7614ZM31.6047 15C31.7906 15 31.942 15.149 31.942 15.3335V16.4436C31.942 16.6282 31.7906 16.7773 31.6047 16.7773H30.2643L31.9864 17.9448C32.0116 17.9614 31.9993 18 31.9695 18H30.7668C30.7507 18 30.7362 17.9954 30.7233 17.9871L28.1923 16.271V17.9697C28.1923 17.9863 28.1785 18 28.1616 18H27.3184C27.3015 18 27.2878 17.9863 27.2878 17.9697V15.0302C27.2878 15.0135 27.3008 15 27.3184 15H31.6047ZM20.7422 15C20.928 15 21.0787 15.149 21.0787 15.3328V17.6663C21.0787 17.8502 20.928 17.9993 20.7422 17.9993H16.6591C16.4734 17.9993 16.3227 17.8502 16.3227 17.6663V15.3328C16.3227 15.149 16.4734 15 16.6591 15H20.7422ZM17.2418 15.6158C17.2334 15.6158 17.2264 15.6226 17.2264 15.6309V17.369C17.2264 17.3773 17.2334 17.384 17.2418 17.384H20.1587C20.1672 17.384 20.1742 17.3773 20.1742 17.369V15.6309C20.1742 15.6226 20.1672 15.6158 20.1587 15.6158H17.2418ZM28.2068 15.6166C28.1985 15.6166 28.1915 15.6235 28.1915 15.6318V16.1462C28.1915 16.1546 28.1985 16.1613 28.2068 16.1613H31.0213C31.0298 16.1613 31.0366 16.1546 31.0366 16.1462V15.6318C31.0366 15.6235 31.0298 15.6166 31.0213 15.6166H28.2068Z" fill="#363636"/>
</svg>
