<svg width="36" height="32" viewBox="0 0 36 32" fill="none" xmlns="http://www.w3.org/2000/svg">
<path d="M36 9L26.5477 14.141L26.3905 14.3255L29.06 14.9722L18.0409 23L7.01906 15.0849C6.99489 14.8846 7.02278 14.9657 7.12971 14.933C7.96188 14.6824 8.83496 14.4941 9.68759 14.3245L0 9H5.52952L17.974 12.1701L30.4705 9H36ZM32.4156 9.76132H29.7843L17.9749 13.3918L6.21571 9.76132H3.66062C3.68015 9.89457 3.81497 9.89177 3.90609 9.93464C7.32497 11.5775 11.2571 12.6761 14.7197 14.2882L14.7959 14.401L11.7452 15.3524L18.0372 18.7331L24.3291 15.3906L21.2022 14.4019L21.2794 14.2891L32.4147 9.76132H32.4156Z" fill="#363636"/>
</svg>
