<svg width="32" height="32" viewBox="0 0 32 32" fill="none" xmlns="http://www.w3.org/2000/svg">
<path d="M16.3481 8.00454C16.3675 8.01589 16.3911 8.01589 16.4126 8.01589C16.5395 8.01816 16.6685 8.0227 16.7953 8.02951C17.0405 8.04314 17.2856 8.06357 17.5307 8.09081C17.7994 8.11806 18.0682 8.15665 18.3348 8.19979C18.9905 8.30876 19.6377 8.46541 20.272 8.67201C21.018 8.91493 21.7383 9.22596 22.4306 9.60964C23.0541 9.957 23.6411 10.3588 24.1872 10.8288C24.4452 11.0513 24.6946 11.2851 24.9268 11.5371C25.5159 12.1728 26.0125 12.8789 26.3802 13.6848C26.6575 14.2933 26.8467 14.929 26.9371 15.5987C26.9693 15.828 26.9865 16.0596 26.9951 16.2911C27.0252 17.0471 26.9155 17.785 26.6941 18.5024C26.449 19.2902 26.0749 20.0031 25.5976 20.6592C25.4363 20.8817 25.2643 21.0951 25.0816 21.2994C24.6064 21.8375 24.0754 22.3029 23.5034 22.7161C22.9315 23.1315 22.3231 23.4789 21.6888 23.7763C20.9664 24.1146 20.2182 24.3779 19.4506 24.5732C18.9454 24.7026 18.4358 24.8025 17.922 24.8683C17.6296 24.9069 17.3372 24.9387 17.0448 24.9591C16.8319 24.9728 16.6212 24.9818 16.4083 24.9909C16.2041 25 15.9977 25.0023 15.7934 24.9977C15.5161 24.9909 15.2387 24.9818 14.9635 24.9591C14.6281 24.9342 14.297 24.8978 13.9638 24.8502C13.5467 24.7911 13.136 24.7117 12.7253 24.6118C12.0115 24.4415 11.3149 24.2099 10.6355 23.9171C9.86795 23.5856 9.13694 23.177 8.45322 22.6798C8.07052 22.4005 7.70716 22.094 7.36316 21.7603C6.8708 21.279 6.43434 20.7455 6.06669 20.1529C5.66248 19.4991 5.36148 18.7975 5.18088 18.0393C5.10347 17.7169 5.05187 17.3922 5.02607 17.0608C5.00887 16.8451 4.99812 16.6294 5.00027 16.4115C5.01102 15.8098 5.09917 15.2196 5.26473 14.6452C5.36793 14.291 5.49478 13.9482 5.65173 13.6167C5.91834 13.0514 6.24944 12.5292 6.6343 12.0457C6.8106 11.8255 6.9955 11.6143 7.19116 11.4145C7.55236 11.0422 7.94152 10.7039 8.35432 10.3952C8.91118 9.97743 9.50244 9.62553 10.1195 9.32131C10.7946 8.98985 11.4934 8.7265 12.2136 8.52217C12.6479 8.39957 13.0844 8.29741 13.5273 8.22022C13.8842 8.15665 14.2433 8.1067 14.6023 8.07265C14.927 8.04314 15.2516 8.01589 15.5763 8.01135C15.5978 8.01135 15.6193 8.01135 15.6408 8C15.8751 8.00454 16.1116 8.00454 16.3481 8.00454ZM14.0799 19.5263C14.0971 19.5263 14.1143 19.5263 14.1293 19.5263C15.3398 19.5263 16.5524 19.5263 17.7629 19.5286C17.8231 19.5286 17.8575 19.5081 17.8854 19.4491C18.0703 19.0495 18.2574 18.65 18.4466 18.2504C18.7777 17.5466 19.1066 16.8451 19.4377 16.1413C19.7495 15.4806 20.0591 14.8177 20.3709 14.1571C20.7665 13.317 21.1621 12.4793 21.5555 11.637C21.5856 11.5735 21.6222 11.5485 21.6888 11.5485C21.9468 11.5507 22.2048 11.5507 22.4628 11.5507C22.7316 11.5507 22.9982 11.5507 23.2669 11.5507C23.2906 11.5507 23.3185 11.5598 23.3422 11.5349C23.3293 11.5099 23.3099 11.4917 23.2949 11.4758C23.2153 11.3941 23.1358 11.3124 23.0519 11.2352C22.7488 10.9468 22.4263 10.6835 22.0887 10.4428C21.6028 10.0978 21.0911 9.80262 20.5558 9.55288C19.8505 9.22369 19.1217 8.98304 18.367 8.81731C17.879 8.7106 17.3888 8.64022 16.8921 8.59936C16.576 8.57439 16.2621 8.56985 15.9461 8.56076C15.8816 8.55849 15.8171 8.56985 15.7504 8.56985C15.529 8.57212 15.3075 8.58347 15.0861 8.60163C14.7399 8.62887 14.3938 8.67201 14.0519 8.73104C13.4886 8.82866 12.936 8.96942 12.3942 9.15785C11.6783 9.40532 10.9946 9.7277 10.3474 10.1341C9.8142 10.4678 9.31539 10.8515 8.86173 11.2942C8.59943 11.5507 8.35002 11.8209 8.12212 12.1115C7.77811 12.5497 7.48141 13.0174 7.23846 13.5236C7.06645 13.8846 6.92455 14.2569 6.81705 14.6429C6.6601 15.2037 6.5784 15.7758 6.56765 16.3592C6.5655 16.5045 6.5698 16.6498 6.5784 16.7951C6.58915 17.0222 6.61065 17.2469 6.64505 17.4717C6.7461 18.1301 6.94175 18.7567 7.22341 19.3538C7.43196 19.7965 7.68566 20.2142 7.97377 20.6047C7.99527 20.6342 8.01462 20.6683 8.04472 20.691C8.07267 20.6705 8.08127 20.641 8.09202 20.6138C8.37797 20.0053 8.66393 19.3946 8.94988 18.7862C9.27024 18.1051 9.59059 17.4217 9.91095 16.7407C10.2227 16.08 10.5323 15.4171 10.8441 14.7564C11.3343 13.7166 11.8245 12.6768 12.3104 11.6347C12.3426 11.5666 12.3813 11.5462 12.4501 11.5462C13.6929 11.5485 14.9356 11.5485 16.1783 11.5485C16.2772 11.5485 16.2793 11.5485 16.2449 11.6506C16.1267 11.998 16.0041 12.3431 15.8708 12.6859C15.6386 13.283 15.3828 13.8665 15.0968 14.4363C14.7851 15.0561 14.4411 15.6532 14.0584 16.2276C13.7036 16.7565 13.3187 17.2583 12.8952 17.7282C12.5813 18.0779 12.248 18.4071 11.8954 18.7113C11.3321 19.1971 10.7301 19.6171 10.0743 19.9509C9.71314 20.1347 9.34119 20.2891 8.95203 20.3981C8.92408 20.4049 8.89613 20.4163 8.86818 20.4253C8.86818 20.4276 8.87033 20.4322 8.87033 20.4344C8.88968 20.4344 8.90903 20.4344 8.92838 20.4344C10.27 20.4344 11.6116 20.4344 12.9532 20.4367C13.0177 20.4367 13.0521 20.4163 13.0822 20.355C13.3209 19.8396 13.5639 19.3265 13.8068 18.8157C14.6088 17.1198 15.4107 15.4239 16.2127 13.7302C16.3438 13.4533 16.475 13.174 16.6061 12.8948C16.8061 12.4679 17.0082 12.0411 17.2082 11.6143C17.2275 11.5735 17.2533 11.5507 17.2985 11.553C17.3178 11.5553 17.3372 11.553 17.3565 11.553C18.4552 11.553 19.5517 11.553 20.6504 11.553C20.6654 11.553 20.6783 11.553 20.6934 11.553C20.7686 11.5553 20.7751 11.5644 20.7514 11.637C20.7192 11.7346 20.6848 11.8345 20.6504 11.9322C20.3838 12.6836 20.0806 13.4192 19.7215 14.1275C19.4485 14.6679 19.1496 15.19 18.8164 15.6918C18.496 16.1708 18.1477 16.6271 17.7672 17.054C17.5565 17.2923 17.3329 17.5171 17.1007 17.7328C16.819 17.9939 16.5266 18.2368 16.217 18.4615C15.8493 18.7272 15.4666 18.961 15.0603 19.1563C14.7399 19.3016 14.4174 19.4287 14.0799 19.5263ZM8.73918 21.4788C8.73918 21.5106 8.76068 21.5219 8.77573 21.5355C8.82948 21.59 8.88538 21.6422 8.94128 21.6967C9.21219 21.9578 9.50244 22.1939 9.8056 22.4141C10.2872 22.766 10.7968 23.0657 11.33 23.32C12.0782 23.6787 12.8565 23.9375 13.6606 24.11C14.067 24.1963 14.4776 24.2599 14.8904 24.2985C15.2409 24.3325 15.5935 24.3507 15.9439 24.353C16.0815 24.3552 16.2191 24.3484 16.3567 24.3439C16.6556 24.3348 16.9545 24.3121 17.2512 24.2803C17.5737 24.2463 17.8919 24.1963 18.2101 24.1305C18.8228 24.0056 19.4205 23.8308 20.0053 23.6015C20.6783 23.3359 21.3212 23.0021 21.9253 22.5889C22.5402 22.1689 23.1014 21.6854 23.5981 21.1155C23.8625 20.8113 24.1076 20.4889 24.3248 20.1461C24.6817 19.5785 24.9612 18.9724 25.1504 18.3185C25.3009 17.7986 25.3869 17.2674 25.4084 16.727C25.4256 16.2934 25.4019 15.862 25.3353 15.433C25.1869 14.484 24.8494 13.6144 24.3506 12.8108C24.342 12.7971 24.3355 12.7767 24.3162 12.7767C24.299 12.7858 24.2968 12.804 24.2882 12.8198C24.1506 13.1445 24.0087 13.4692 23.8518 13.7847C23.5099 14.4772 23.1186 15.1378 22.6628 15.7531C22.3016 16.2412 21.906 16.6975 21.4631 17.1062C21.0696 17.4717 20.6482 17.8009 20.1924 18.0756C19.7688 18.3299 19.3302 18.5433 18.8594 18.6772C18.8486 18.6795 18.8314 18.6772 18.8271 18.7022C18.8594 18.7022 18.8873 18.7022 18.9153 18.7022C19.9494 18.7022 20.9858 18.7022 22.0199 18.7022C22.0436 18.7022 22.0672 18.7022 22.093 18.7022C22.1446 18.7067 22.1511 18.7181 22.1296 18.7703C22.1253 18.7817 22.1188 18.793 22.1145 18.8044C22.0156 19.0223 21.9124 19.238 21.8157 19.4582C21.7877 19.5195 21.7555 19.5536 21.6888 19.5422C21.6673 19.5399 21.6458 19.5422 21.6243 19.5422C20.4633 19.5422 19.3044 19.5422 18.1434 19.5422C18.0725 19.5422 18.0037 19.5445 17.9327 19.5422C17.8768 19.5399 17.8446 19.5581 17.8188 19.6149C17.7091 19.86 17.5973 20.1007 17.4877 20.3459C17.4275 20.4776 17.4382 20.4617 17.3157 20.4617C15.9332 20.4617 14.5507 20.4617 13.1682 20.4617C13.1446 20.4617 13.1209 20.4639 13.0951 20.4617C13.0543 20.4594 13.0285 20.4753 13.0113 20.5162C12.8866 20.7931 12.7597 21.0678 12.635 21.3425C12.5705 21.4833 12.5834 21.4697 12.4458 21.4697C11.2397 21.4697 10.0335 21.4697 8.82733 21.4697C8.79938 21.4697 8.76928 21.4629 8.73918 21.4788Z" fill="#363636"/>
</svg>
