<svg width="32" height="32" viewBox="0 0 32 32" fill="none" xmlns="http://www.w3.org/2000/svg">
<path d="M18.6144 10.2009L17.1994 7.1291C17.1819 7.09057 17.1538 7.05792 17.1185 7.03504C17.0832 7.01216 17.0422 7 17.0003 7C16.9584 7 16.9173 7.01216 16.882 7.03504C16.8467 7.05792 16.8187 7.09057 16.8012 7.1291L13.2583 14.8191C13.0881 15.1892 13 15.5924 13 16.0006C13 16.4087 13.0881 16.812 13.2583 17.182L14.4432 19.7542C14.4608 19.7925 14.4889 19.825 14.5241 19.8478C14.5593 19.8706 14.6003 19.8827 14.6421 19.8827C14.6839 19.8827 14.7248 19.8706 14.76 19.8478C14.7953 19.825 14.8233 19.7925 14.8409 19.7542L18.6144 11.5661C18.7129 11.3523 18.7639 11.1194 18.7639 10.8835C18.7639 10.6477 18.7129 10.4147 18.6144 10.2009ZM19.1586 12.2464L15.3851 20.4351C15.2866 20.6487 15.2356 20.8816 15.2356 21.1174C15.2356 21.3531 15.2866 21.586 15.3851 21.7997L16.8006 24.8715C16.8182 24.9099 16.8463 24.9424 16.8815 24.9651C16.9167 24.9879 16.9577 25 16.9995 25C17.0413 25 17.0822 24.9879 17.1174 24.9651C17.1527 24.9424 17.1807 24.9099 17.1983 24.8715L20.7417 17.182C20.9119 16.812 21 16.4087 21 16.0006C21 15.5924 20.9119 15.1892 20.7417 14.8191L19.5562 12.2464C19.5387 12.2081 19.5106 12.1756 19.4754 12.1528C19.4401 12.13 19.3992 12.1179 19.3574 12.1179C19.3156 12.1179 19.2747 12.13 19.2394 12.1528C19.2042 12.1756 19.1761 12.2081 19.1586 12.2464Z" fill="#393939"/>
</svg>
