<svg width="32" height="32" viewBox="0 0 32 32" fill="none" xmlns="http://www.w3.org/2000/svg">
<path fill-rule="evenodd" clip-rule="evenodd" d="M23.4122 12L25.9989 16.6154H18.0068L15.4323 12H23.4122ZM15.8356 17.3726C14.9205 17.3726 13.9687 17.2885 13.383 16.7956C12.8951 16.4232 12.6264 15.9903 12.3455 15.4978C11.9056 14.7217 11.4693 13.9436 11.0368 13.1635C10.8273 12.7872 10.617 12.4114 10.4058 12.036H3C3.26601 12.5151 3.5322 12.9955 3.79857 13.4774C4.44529 14.651 5.09827 15.8213 5.75748 16.9883C6.56243 18.4301 7.33121 19.7769 8.73415 20.7618C9.40557 21.2548 10.1132 21.5791 10.9426 21.7838C11.7603 21.976 12.5897 22 13.4319 22H20.0205L17.4338 17.3731L15.8356 17.3726ZM18.434 17.3606L21.0212 22H29L26.4016 17.3601L18.434 17.3606Z" fill="#393939"/>
</svg>
