<svg width="32" height="32" viewBox="0 0 32 32" fill="none" xmlns="http://www.w3.org/2000/svg">
<path d="M21 8C18.798 8 16.9128 9.20071 16.4763 10.4832V17.7573C16.4763 17.8548 16.4694 17.8936 16.3602 17.895L15.6605 17.9038C15.5412 17.9038 15.5372 17.8489 15.5372 17.7628V10.4911C15.0752 9.20071 13.0347 8.03037 11 8.03037V24.7915C11 25.4285 12.0959 26 13.0373 26H19.0835C19.8829 26 21 25.4989 21 24.7915V8ZM19.8563 10.973V22.3732C19.8563 23.1176 19.5094 23.1975 18.5922 23.1975H13.4831C12.822 23.1975 12.1061 23.2675 12.1061 22.3924V10.973C12.1061 10.5007 13.0015 10.4896 13.0015 10.973V18.8687C13.0015 19.1186 13.0463 19.1494 13.2907 19.1494H18.6932C18.893 19.1494 18.9766 19.0917 18.9766 18.8769V10.973C18.9766 10.5078 19.8563 10.5179 19.8563 10.973L19.8563 10.973Z" fill="#393939"/>
</svg>
