<svg width="32" height="32" viewBox="0 0 32 32" fill="none" xmlns="http://www.w3.org/2000/svg">
<path d="M30.5418 14.0266L30.5288 14H29.6016L31.0642 17.8201V17.8467H32.0044L30.5418 14.0266Z" fill="#363636"/>
<path d="M28.0424 14.0133L26.9062 17.8467H27.7681L28.6563 15.0116H29.7141L29.3353 14L28.0424 14.0133Z" fill="#363636"/>
<path d="M1.28634 15.8368L1.27328 15.8235V15.0915L1.71729 14.6123H4.42052L5.72642 15.93V14.6389L5.07346 14.0133L1.03822 14L0.4375 14.6389V15.4775L1.28634 16.3826V15.8368Z" fill="#363636"/>
<path d="M4.89065 16.767H4.87759V16.7936L4.40746 17.2195H1.70423L0.4375 15.8086V17.2062L1.09045 17.8451H5.07346L5.73948 17.1929V16.2745L4.89065 15.4492V16.767Z" fill="#363636"/>
<path d="M14.7603 15.8368L14.7473 15.8235V15.0915L15.1913 14.6123H17.8815L19.1874 15.93V14.6389L18.5475 14.0133L14.5122 14L13.8984 14.6389V15.4775L14.7603 16.3826V15.8368Z" fill="#363636"/>
<path d="M18.3646 16.767H18.3516V16.7936L17.8815 17.2195H15.1782L13.8984 15.8086V17.2062L14.5514 17.8451H18.5475L19.2004 17.1929V16.2745L18.3646 15.4492V16.767Z" fill="#363636"/>
<path d="M10.439 14L9.92969 16.6621L10.1386 17.8334L10.4912 17.8467L11.0005 15.0116H11.6404V17.8733H12.4893V14.6522L11.9016 14H10.439Z" fill="#363636"/>
<path d="M7.66054 14.0117L7.08594 14.6772V17.8584H7.13818C7.21653 17.8584 7.63442 17.8584 7.90865 17.8584H7.94783V15.0233H8.58773L9.05786 17.8717H9.91975L9.21455 14.0117H7.66054Z" fill="#363636"/>
<path d="M24.2604 14L25.1353 14.6921V16.7819L24.5086 17.2211H21.5833V14.6389H24.6522L23.8556 14H20.6953V17.8467H25.3705L25.9972 17.2078V14.6389L25.2006 14H24.2604Z" fill="#363636"/>
</svg>
