<svg width="32" height="32" viewBox="0 0 32 32" fill="none" xmlns="http://www.w3.org/2000/svg">
<path d="M3.98275 15.0073V15.5868L3.95466 15.6238H0.564877C0.461498 15.6238 0.425165 16.1665 0.584916 16.1646L3.6183 16.1653C3.80371 16.168 3.96814 16.3626 3.99699 16.6038C4.0189 16.786 4.01609 17.4097 3.97751 17.5774C3.93275 17.7722 3.80839 17.913 3.65501 17.9418H0.0498545V17.3253H3.43027C3.55238 17.3253 3.56886 16.8131 3.42971 16.7835L0.37666 16.784C0.194997 16.7665 0.0459216 16.6131 0.0167058 16.3702C-0.00576792 16.1804 -0.00389512 15.6354 0.0123983 15.4388C0.025508 15.279 0.176644 15.0073 0.302684 15.0073H3.98275Z" fill="#363636"/>
<path d="M27.6551 15.6484H24.3496C24.2366 15.6484 24.2145 16.169 24.3687 16.1905L27.3281 16.19C27.4784 16.186 27.6412 16.3951 27.6695 16.5789C27.6931 16.7315 27.6869 17.3396 27.6715 17.5076C27.6547 17.6918 27.567 17.8432 27.4371 17.914C27.4174 17.9246 27.3371 17.9665 27.3271 17.9665H23.8437L23.8156 17.9295V17.35H27.1024C27.1108 17.35 27.1803 17.2822 27.188 17.2654C27.2234 17.188 27.2359 16.8183 27.1206 16.8082H24.1801C23.9763 16.7981 23.8289 16.6067 23.8016 16.3451C23.7804 16.1419 23.7795 15.5399 23.8308 15.3604C23.8727 15.2134 24.0224 15.0319 24.1432 15.0319H27.6266L27.6547 15.0689L27.6551 15.6484Z" fill="#363636"/>
<path d="M5.19521 15.0132L8.46888 15.0063C8.68744 15.0349 8.83089 15.2576 8.85187 15.5377C8.88689 16.005 8.88352 16.9653 8.85262 17.4373C8.83183 17.7576 8.66871 17.9406 8.43124 17.9675H5.26469C5.03471 17.9386 4.88957 17.7298 4.86522 17.4333C4.82814 16.9826 4.83226 16.0186 4.86222 15.5614C4.87983 15.2946 4.99688 15.0859 5.19521 15.0132ZM5.43811 15.629C5.38343 15.6672 5.35665 15.7291 5.34953 15.8082C5.32275 16.1059 5.32631 16.8634 5.34878 17.1665C5.3559 17.2632 5.37444 17.295 5.44261 17.3389L8.26643 17.3308C8.35202 17.2928 8.35913 17.2242 8.36588 17.1165C8.38573 16.8038 8.39247 16.1118 8.3655 15.808C8.35801 15.7239 8.33291 15.6677 8.27242 15.6346L5.43811 15.629Z" fill="#363636"/>
<path d="M22.5236 16.8321H19.6956V17.9665H19.2368L19.2087 17.9295V15.4881C19.2087 15.4778 19.2583 15.3153 19.2675 15.2943C19.3192 15.1794 19.4552 15.0521 19.5567 15.0339C20.5494 15.1037 21.6254 14.9338 22.6084 15.0307C22.7612 15.0457 22.8981 15.1407 22.9644 15.3264C22.9742 15.3537 23.0103 15.4714 23.0103 15.4879V17.9293L22.9822 17.9663H22.5327L22.5088 17.9293C22.5082 17.9192 22.5234 17.9108 22.5234 17.9046L22.5236 16.8321ZM19.6956 15.7841C19.6793 15.8834 19.7076 16.0455 19.6956 16.154H22.5236V15.7841C22.5236 15.7542 22.4427 15.6292 22.4028 15.6472L19.7599 15.6714C19.7464 15.682 19.6984 15.7666 19.6956 15.7841Z" fill="#363636"/>
<path d="M10.1818 15.0073V17.1157C10.1818 17.1848 10.2775 17.313 10.3406 17.3012L13.1548 17.2819C13.247 17.2173 13.261 17.1194 13.2717 16.9919C13.2854 16.3476 13.2595 15.7012 13.261 15.0576C13.261 15.0287 13.2623 15.0258 13.2815 15.0073H13.759V17.5349C13.759 17.7137 13.4983 17.9845 13.3562 17.9663C12.308 17.8886 11.1723 18.0706 10.1344 17.9675C9.97782 17.9519 9.85309 17.8938 9.76188 17.7182C9.74859 17.6923 9.69521 17.5515 9.69521 17.5347V15.0073H10.1818Z" fill="#363636"/>
<path d="M32 15.6484H30.4081V17.9418H29.9212V15.6484H28.348V15.0689L28.3761 15.0319H31.9719L32 15.0689V15.6484Z" fill="#363636"/>
<path d="M18.3847 16.191V16.7705L18.3566 16.8075H14.5735L14.5454 16.7705V16.191H18.3847Z" fill="#363636"/>
<path d="M14.5735 15.0319H18.3566L18.3847 15.0689V15.6114L18.3566 15.6484H14.5735L14.5454 15.6114V15.0689L14.5735 15.0319Z" fill="#363636"/>
<path d="M18.3847 17.35H14.5454V17.9418H18.3847V17.35Z" fill="#363636"/>
<path d="M5.43811 15.629L8.27242 15.6346C8.33291 15.6677 8.35801 15.7239 8.3655 15.808C8.39247 16.1118 8.38573 16.8038 8.36588 17.1165C8.35913 17.2242 8.35202 17.2928 8.26643 17.3308L5.44261 17.3389C5.37444 17.295 5.3559 17.2632 5.34878 17.1665C5.32631 16.8634 5.32275 16.1059 5.34953 15.8082C5.35665 15.7291 5.38343 15.6672 5.43811 15.629Z" fill="white"/>
<path d="M19.6956 15.7841C19.6984 15.7666 19.7464 15.682 19.7599 15.6714L22.4028 15.6472C22.4427 15.6292 22.5236 15.7542 22.5236 15.7841V16.154H19.6956C19.7076 16.0455 19.6793 15.8834 19.6956 15.7841Z" fill="white"/>
</svg>
