<svg width="32" height="32" viewBox="0 0 32 32" fill="none" xmlns="http://www.w3.org/2000/svg">
<path fill-rule="evenodd" clip-rule="evenodd" d="M9.04057 6.3288C8.78698 6.50567 8.7838 6.7257 8.77959 7.01756C8.77872 7.07742 8.77781 7.14031 8.77469 7.20646C8.72885 8.18285 8.70746 9.69994 8.71051 11.4631L12.251 11.7515C13.1296 11.8361 13.2335 12.0665 13.235 12.4818C13.235 12.4818 13.2763 15.3279 13.3007 16.3278C13.328 17.4824 13.4118 19.097 13.4431 19.7005C13.4503 19.84 13.4547 19.9255 13.455 19.9387C13.4642 20.2789 13.6889 20.5265 14.0051 20.5547C14.0051 20.5547 15.1328 20.5954 15.906 20.5892H15.9228H15.9396C16.7128 20.597 17.8405 20.5547 17.8405 20.5547C18.1568 20.528 18.3799 20.2789 18.3906 19.9387C18.3909 19.9255 18.3953 19.84 18.4025 19.7005C18.4338 19.0971 18.5176 17.4824 18.5449 16.3278C18.5694 15.3279 18.6106 12.4818 18.6106 12.4818C18.6137 12.0665 18.7161 11.8361 19.5947 11.7515L23.1321 11.4976L23.1336 11.4678C23.1366 9.70308 23.1153 8.18442 23.0694 7.20646C23.0665 7.14455 23.0654 7.08531 23.0643 7.02861C23.0585 6.72925 23.0541 6.50041 22.7959 6.32253L18.3753 7.15317C18.2225 7.06384 16.0053 7.06227 15.9366 7.06227C15.8678 7.06227 13.6506 7.06384 13.4978 7.15317L9.04057 6.3288ZM17.7014 21.1957L15.9381 21.2145H15.9075L14.1442 21.1957C12.9061 21.2027 12.8928 21.1044 12.7687 20.18C12.755 20.0777 12.7399 19.9652 12.7216 19.8416C12.6757 19.5313 12.0386 12.546 12.0386 12.546C12.0172 12.3846 11.9301 12.3173 11.8063 12.3L8.81289 11.8972C8.75788 11.891 8.70899 11.9364 8.71051 11.9928C8.71051 11.9928 8.955 23.5528 9.2713 24.9571C9.34007 25.2611 9.41647 25.3301 9.67317 25.3928C9.67317 25.3928 11.1813 25.7579 15.9244 25.7642C20.6643 25.7595 22.1725 25.3943 22.1725 25.3943C22.4292 25.3317 22.5056 25.2611 22.5743 24.9587C22.8906 23.5528 23.1351 11.9928 23.1351 11.9928C23.1366 11.9348 23.0877 11.8894 23.0327 11.8972L20.0393 12.3C19.9156 12.3157 19.8285 12.3846 19.8071 12.546C19.8071 12.546 19.1699 19.5313 19.1241 19.8416C19.1058 19.9652 19.0907 20.0777 19.077 20.18C18.9528 21.1056 18.9397 21.2027 17.7014 21.1957ZM21.3335 24.051L20.3281 23.2C20.3189 23.1922 20.3189 23.1765 20.3296 23.1686L21.332 22.5229C21.3412 22.5183 21.3366 22.5041 21.3259 22.5041H20.8125C20.7941 22.5041 20.7773 22.5088 20.762 22.5198L19.6695 23.2235C19.6573 23.2313 19.6405 23.2219 19.6405 23.2078V22.5245C19.6405 22.5135 19.6328 22.5057 19.6221 22.5057H19.2019C19.1912 22.5057 19.1836 22.5135 19.1836 22.5245V24.0541C19.1836 24.0651 19.1928 24.0729 19.2019 24.0729H19.6221C19.6328 24.0729 19.6405 24.0651 19.6405 24.0541V23.6341C19.6405 23.6216 19.6466 23.6106 19.6573 23.6044L20.0133 23.3755C20.0256 23.3677 20.0424 23.3693 20.053 23.3786L20.8492 24.0526C20.866 24.0667 20.8873 24.0745 20.9103 24.0745H21.3259C21.3381 24.0698 21.3427 24.0573 21.3335 24.051ZM18.0144 22.5023H18.4346C18.4453 22.5023 18.453 22.5117 18.453 22.5211V24.0508C18.453 24.0617 18.4453 24.0696 18.4346 24.0696H18.0205C18.0037 24.0696 17.9884 24.0633 17.9762 24.0539L16.5872 22.9396C16.575 22.9318 16.5597 22.9396 16.5597 22.9537V24.0508C16.5597 24.0617 16.5521 24.0696 16.5414 24.0696H16.1212C16.1105 24.0696 16.1028 24.0617 16.1028 24.0508V22.5211C16.1028 22.5117 16.1105 22.5023 16.1212 22.5023H16.5353C16.5521 22.5023 16.5674 22.5086 16.5796 22.518L17.9686 23.6323C17.9808 23.6402 17.9961 23.6323 17.9961 23.6182V22.5211C17.9961 22.5117 18.0037 22.5023 18.0144 22.5023ZM14.6116 22.518C14.6055 22.5086 14.5948 22.5023 14.5841 22.5023H14.1028C14.0906 22.5023 14.0814 22.5086 14.0738 22.518L13.0729 24.0429C13.0652 24.0539 13.0729 24.0696 13.0867 24.0696H13.5542C13.5649 24.0696 13.5756 24.0633 13.5817 24.0539L13.84 23.6621C13.8522 23.6433 13.8736 23.6323 13.895 23.6323H14.7904C14.8133 23.6323 14.8332 23.6433 14.8454 23.6621L15.1036 24.0539C15.1098 24.0633 15.1204 24.0696 15.1312 24.0696H15.5988C15.6125 24.0696 15.6201 24.0539 15.6125 24.0429L14.6116 22.518ZM14.0844 23.3862H14.6024C14.6284 23.3862 14.6437 23.3565 14.63 23.333L14.3702 22.938C14.3564 22.9177 14.3289 22.9177 14.3152 22.938L14.057 23.333C14.0417 23.3565 14.0585 23.3862 14.0844 23.3862ZM10.6496 22.5023H13.0532C13.0669 22.5023 13.0746 22.518 13.0624 22.529L12.9386 22.7186C12.9264 22.7374 12.9065 22.7484 12.8836 22.7484H12.1104C12.0921 22.7484 12.0768 22.7641 12.0768 22.7828V24.0508C12.0768 24.0617 12.0691 24.0696 12.0584 24.0696H11.6382C11.6275 24.0696 11.6199 24.0617 11.6199 24.0508V22.7828C11.6199 22.7641 11.6046 22.7484 11.5863 22.7484H10.8146C10.7932 22.7484 10.7718 22.7374 10.7596 22.7186L10.6358 22.529C10.6282 22.518 10.6358 22.5023 10.6496 22.5023Z" fill="#363636"/>
</svg>
