<svg width="32" height="32" viewBox="0 0 32 32" fill="none" xmlns="http://www.w3.org/2000/svg">
<path d="M12.8318 14.0469V14.7596C12.8146 14.7909 12.7931 14.7898 12.7647 14.7935C12.16 14.8735 11.4171 14.7306 10.7974 14.7935C10.2354 14.7518 9.66651 14.7801 9.10598 14.7699C8.55428 14.7596 8.03672 15.0075 7.9885 15.7057C7.95723 16.1591 8.32892 16.7669 8.75481 16.7669H12.8318V17.4797L12.7647 17.5136C11.4223 17.4434 10.0105 17.6029 8.67627 17.5136C7.4411 17.4307 6.84405 15.9027 7.51129 14.7728C7.6889 14.4723 8.17089 14.0471 8.502 14.0471H12.8318V14.0469Z" fill="#363636"/>
<path d="M18.6146 14.0482H19.3931V16.9544C19.3931 17.0419 19.3088 17.2343 19.2563 17.3048C18.9228 17.753 18.337 17.3828 17.9789 17.1665C16.9106 16.5215 15.8776 15.7361 14.8143 15.0744C14.7045 14.9894 14.4503 15.0949 14.4503 15.2434V17.4807L14.4211 17.5136H13.7109V14.5199C13.7109 14.476 13.7797 14.3009 13.8083 14.2567C14.1242 13.7678 14.6802 14.0883 15.0473 14.3076C16.1185 14.9472 17.1596 15.7189 18.2126 16.3988C18.325 16.4542 18.4692 16.476 18.5568 16.3625C18.5671 16.349 18.6148 16.2589 18.6148 16.2524V14.0482H18.6146Z" fill="#363636"/>
<path d="M32.003 14.7927H29.4732V17.4797L29.4441 17.5125H28.7143V14.7927H26.2721C26.2163 14.733 26.2626 14.6321 26.2607 14.5646C26.2581 14.472 26.2406 14.3808 26.2423 14.2764C26.2435 14.1967 26.2877 14.1254 26.243 14.0469H31.5069C31.5167 14.0469 31.664 14.1163 31.686 14.13C31.891 14.2578 31.9906 14.5382 32.003 14.7925V14.7927Z" fill="#363636"/>
<path d="M6.74064 14.0469V14.7927H4.26911V17.4797L4.23999 17.5125H3.53933L3.5102 17.4797V14.7927H1C1.01743 14.5282 1.11339 14.2732 1.32491 14.1389C1.35236 14.1214 1.49941 14.0469 1.51565 14.0469H6.74064Z" fill="#363636"/>
<path d="M20.2109 16.1764V15.3867H25.4359C25.4541 15.4007 25.4651 15.4416 25.4651 15.4634V16.1433L25.4359 16.1762H20.2109V16.1764Z" fill="#363636"/>
<path d="M25.4455 16.7695C25.4629 17.0827 25.2817 17.3658 25.0229 17.4667C24.9972 17.4766 24.8864 17.5154 24.8716 17.5154H20.2109V16.7695H25.4457H25.4455Z" fill="#363636"/>
<path d="M20.2109 14.7927V14.0469H24.9494C24.9656 14.0469 25.1129 14.1214 25.1402 14.1389C25.2769 14.2258 25.3796 14.3959 25.425 14.5635C25.4321 14.5899 25.4648 14.75 25.4643 14.7602C25.461 14.8129 25.4187 14.7707 25.4164 14.7707H20.2401C20.2341 14.7707 20.225 14.7984 20.2109 14.7927Z" fill="#363636"/>
<path d="M12.8325 15.3867V16.1764H9.14487C9.13628 16.1764 9.02885 16.1197 9.01166 16.107C8.79275 15.9469 8.81925 15.6106 9.031 15.4561C9.04819 15.4438 9.15537 15.3867 9.16421 15.3867H12.8325Z" fill="#363636"/>
</svg>
