<svg width="32" height="32" viewBox="0 0 32 32" fill="none" xmlns="http://www.w3.org/2000/svg">
<path d="M16 6C10.4854 6 6 10.4931 6 15.9997C6 21.5064 10.4854 26 16 26C21.5146 26 26 21.5064 26 15.9997C26 10.4931 21.5146 6 16 6ZM16 8.06267C20.3843 8.06267 23.9238 11.5997 23.9238 15.9997C23.9238 20.3998 20.3843 23.9373 16 23.9373C11.6157 23.9373 8.07617 20.3998 8.07617 15.9997C8.07617 11.5997 11.6157 8.06267 16 8.06267Z" fill="#363636"/>
<path fill-rule="evenodd" clip-rule="evenodd" d="M12.9779 9.11387H9.82436L14.3904 24.2568H17.5111L22.1428 9.09755H18.7922L15.9672 19.8836L12.9779 9.11387Z" fill="#363636"/>
</svg>
