<svg width="32" height="32" viewBox="0 0 32 32" fill="none" xmlns="http://www.w3.org/2000/svg">
<path d="M9.13281 6.19922L13.9166 11.4352C14.6392 12.316 14.4685 12.9776 14.5068 14.0301C14.6121 16.9399 14.6808 19.8532 14.7887 22.7578C14.7917 22.835 14.8093 22.9353 14.741 22.9874C14.4567 22.5773 14.1839 22.1418 13.9889 21.6818C13.6088 19.5897 13.4842 17.4047 13.1008 15.32C12.6844 13.0551 10.965 12.361 9.71018 10.7144C8.83938 9.57185 8.99607 7.74577 9.03827 6.36552C9.0399 6.30762 9.03532 6.25004 9.07065 6.19922H9.13281Z" fill="#393939"/>
<path d="M22.9249 6.19922C22.9602 6.25004 22.9553 6.30762 22.9573 6.36552C23.0047 7.69624 23.1477 9.58504 22.3164 10.6838C21.0139 12.4054 19.306 13.0265 18.8908 15.4078C18.5156 17.5603 18.4011 19.7814 17.9281 21.9102C17.721 22.2302 17.5506 22.5747 17.3485 22.8974C17.3252 22.9344 17.3131 22.9932 17.2549 22.9884C17.2317 22.67 17.2317 22.3451 17.2379 22.0253C17.2932 19.104 17.3822 16.1544 17.5202 13.2366C17.5637 12.3182 17.5693 12.0483 18.1865 11.3272C19.5519 9.73172 21.0891 8.18967 22.5062 6.62703C22.6298 6.49065 22.7571 6.34944 22.8631 6.19922H22.9252H22.9249Z" fill="#393939"/>
<path d="M15.971 25.7976C15.8843 25.547 15.6278 25.3148 15.5974 25.0501C15.5657 24.7725 15.6076 24.4228 15.5987 24.133C15.4905 20.5729 15.3691 17.013 15.288 13.449C15.2791 13.063 15.2225 12.6535 15.2366 12.265C15.251 11.8706 15.692 11.7223 15.9219 11.4492C15.9481 11.4251 15.9795 11.4151 16.0155 11.4187C16.0711 11.4241 16.6494 11.9269 16.6992 12.0018C16.8506 12.2296 16.7492 12.4551 16.7459 12.686C16.6966 16.2378 16.5497 19.7919 16.4352 23.3395C16.4178 23.876 16.4705 24.5644 16.4061 25.0813C16.392 25.1935 16.1365 25.6487 16.0583 25.7471C16.0315 25.7809 16.0273 25.8105 15.9707 25.7979L15.971 25.7976Z" fill="#393939"/>
</svg>
