<svg width="32" height="32" viewBox="0 0 32 32" fill="none" xmlns="http://www.w3.org/2000/svg">
<g clip-path="url(#clip0_5417_22482)">
<path d="M22.9972 7C23.0142 7.02696 23.0588 7.01631 23.0864 7.01664C24.12 7.02763 25.0724 7.22003 25.3597 8.34649C25.9429 10.6324 25.9552 13.2215 25.9842 15.5749C25.9845 15.6022 25.9738 15.6472 26.0008 15.6638V16.8805C25.9738 16.8975 25.9845 16.9421 25.9842 16.9694C25.9662 18.6681 25.8064 20.4699 25.4928 22.1406C25.2811 23.2684 24.7841 23.8367 23.6061 23.9542L23.1437 23.9868C18.8373 23.9502 14.5275 24.0354 10.2217 23.9868C9.11088 23.9741 7.19916 24.1532 6.80104 22.822C6.44086 21.6187 6.23847 20.0129 6.13095 18.7543C5.86698 15.6705 6.03608 12.0751 6.55504 9.02257C6.79804 7.59452 7.31267 7.05825 8.79265 7H22.9972ZM11.9513 7.85317C11.3665 7.86182 10.7786 7.8515 10.1971 7.90876C8.81196 8.04457 8.37056 8.52425 8.19413 9.88206C7.73876 13.3889 7.6056 17.2836 8.16251 20.7802C8.36989 22.0817 8.5137 22.9352 10.035 23.0624C10.6821 23.1163 11.3492 23.101 11.9996 23.1107C15.1563 23.1569 18.3206 23.1107 21.4803 23.1283C22.7466 23.087 23.4802 22.8467 23.7878 21.5245C23.9476 20.8384 24.0285 19.9972 24.1011 19.2905C24.3314 17.0496 24.2179 14.813 24.1011 12.5737C24.0371 11.3474 24.0338 10.1593 23.6384 8.97996C23.2429 7.80057 21.8045 7.88413 20.7799 7.86116C17.8639 7.79558 14.8693 7.81122 11.9507 7.85383L11.9513 7.85317Z" fill="#393939"/>
<path d="M8.79218 7C7.31221 7.05825 6.79758 7.59452 6.55458 9.02257C6.03562 12.0751 5.86652 15.6705 6.12982 18.7546C6.23734 20.0132 6.43973 21.619 6.79991 22.8224C7.19836 24.1536 9.10975 23.9745 10.2206 23.9871H6V7H8.79218Z" fill="white"/>
<path d="M23 7H26.0032V15.6638C25.9763 15.6468 25.9869 15.6022 25.9866 15.5749C25.9573 13.2218 25.945 10.6324 25.3621 8.34649C25.0748 7.22003 24.1228 7.0273 23.0892 7.01664C23.0619 7.01664 23.017 7.02696 23 7Z" fill="white"/>
<path d="M25.9977 16.8789V23.9852H23.1406L23.603 23.9526C24.7807 23.8351 25.278 23.2668 25.4897 22.1391C25.8033 20.4687 25.9634 18.6668 25.9811 16.9678C25.9811 16.9405 25.9708 16.8956 25.9977 16.8789Z" fill="white"/>
<path d="M11.9512 7.85337C14.8699 7.81077 17.8641 7.79512 20.7804 7.8607C21.8047 7.88367 23.2441 7.80244 23.6389 8.9795C24.0337 10.1566 24.0377 11.3469 24.1016 12.5733C24.2181 14.8129 24.3316 17.0491 24.1016 19.2901C24.029 19.9971 23.9478 20.8383 23.7883 21.524C23.4804 22.8462 22.7471 23.0866 21.4808 23.1278C18.3215 23.1102 15.1568 23.1565 12.0001 23.1102C11.3493 23.1005 10.6826 23.1162 10.0355 23.0619C8.51421 22.9348 8.37008 22.0813 8.16303 20.7797C7.60645 17.2832 7.73927 13.3881 8.19465 9.8816C8.37107 8.52412 8.81247 8.04411 10.1976 7.9083C10.7791 7.85138 11.367 7.86136 11.9518 7.85271L11.9512 7.85337ZM10.0881 9.90923C9.68861 9.95217 9.59773 10.2022 9.55579 10.5617C9.54847 10.6236 9.56111 10.6902 9.55346 10.7541C9.53515 10.9069 9.45459 11.044 9.52483 11.1925C9.5721 11.2927 9.70492 11.3346 9.80278 11.3689C11.0271 11.799 12.3483 12.1392 13.5939 12.5283C14.0913 12.6838 14.6861 12.8316 15.1605 13.0233C15.4664 13.1468 15.6338 13.2989 15.505 13.6521C15.3602 14.0486 14.8149 14.3974 14.4794 14.6391C12.8889 15.7845 11.2538 16.871 9.66897 18.0248C9.2765 18.3733 9.46158 18.7162 9.50686 19.1609C9.58175 19.8979 9.43029 20.8243 10.367 21.0267C10.6034 21.078 10.8207 21.0557 11.0564 21.084C14.5317 21.0057 17.9983 21.1815 21.4276 21.0933C21.6543 21.0873 22.0461 21.1109 22.2401 21.0164C22.3357 20.9698 22.3746 20.9149 22.4155 20.8183C22.4878 20.6479 22.5797 20.0028 22.5351 19.8333C22.4951 19.6815 22.3114 19.6309 22.1815 19.5863C20.4176 18.9782 18.5645 18.5797 16.8278 17.8956C16.2989 17.5891 16.48 17.1437 16.8948 16.8424L22.4435 12.9128C22.7954 12.5683 22.566 12.0636 22.5427 11.6325C22.5191 11.1915 22.5896 10.7321 22.319 10.3473C22.0953 10.0294 21.7202 9.93952 21.3503 9.9039L10.0881 9.90923Z" fill="white"/>
<path d="M10.0862 9.90767L21.3484 9.90234C21.7183 9.93763 22.0934 10.0275 22.3171 10.3457C22.5877 10.7305 22.5172 11.1899 22.5408 11.631C22.5641 12.0621 22.7931 12.5667 22.4416 12.9112L16.8929 16.8409C16.4781 17.1421 16.297 17.5875 16.826 17.8941C18.5626 18.5785 20.4157 18.9766 22.1796 19.5848C22.3095 19.6294 22.4929 19.6803 22.5332 19.8318C22.5778 20.0012 22.4862 20.6463 22.4137 20.8168C22.3727 20.913 22.3338 20.9682 22.2382 21.0148C22.0442 21.1094 21.6524 21.0861 21.4257 21.0917C17.9964 21.1799 14.5298 21.0042 11.0545 21.0824C10.8188 21.0541 10.6015 21.0761 10.3651 21.0251C9.4284 20.8224 9.57952 19.8964 9.50496 19.1594C9.46002 18.715 9.27461 18.3718 9.66707 18.0232C11.2519 16.8698 12.887 15.783 14.4775 14.6375C14.813 14.3959 15.3583 14.047 15.5031 13.6506C15.6319 13.2974 15.4645 13.1452 15.1586 13.0217C14.6842 12.8303 14.0894 12.6822 13.592 12.5268C12.3464 12.1373 11.0252 11.7971 9.80089 11.3673C9.70302 11.3331 9.5702 11.2911 9.52294 11.1909C9.4527 11.0425 9.53325 10.9056 9.55156 10.7525C9.55922 10.6886 9.54657 10.622 9.55389 10.5601C9.59584 10.2006 9.68638 9.95028 10.0862 9.90767Z" fill="#393939"/>
</g>
<defs>
<clipPath id="clip0_5417_22482">
<rect width="20" height="17.0024" fill="white" transform="translate(6 7)"/>
</clipPath>
</defs>
</svg>
